<svg xmlns="http://www.w3.org/2000/svg" width="600" height="480" viewBox="0 0 600 480"><defs>
<linearGradient id="wall" x2=".8" y2="1"><stop stop-color="#e7e7dd"/><stop offset="1" stop-color="#d5d6c8"/></linearGradient>
<linearGradient id="sage"><stop stop-color="#7f8c68"/><stop offset=".4" stop-color="#b0ba94"/><stop offset=".7" stop-color="#929f77"/><stop offset="1" stop-color="#687757"/></linearGradient>
<linearGradient id="cream"><stop stop-color="#d3c5a9"/><stop offset=".4" stop-color="#fff4d8"/><stop offset=".7" stop-color="#e7d9b9"/><stop offset="1" stop-color="#c5b493"/></linearGradient>
<linearGradient id="pot"><stop stop-color="#c2b69e"/><stop offset=".35" stop-color="#eee6d1"/><stop offset="1" stop-color="#b1a68c"/></linearGradient>
<linearGradient id="gold" x2="1" y2="1"><stop stop-color="#eed49c"/><stop offset=".5" stop-color="#be9951"/><stop offset="1" stop-color="#f0d7a4"/></linearGradient>
<filter id="shadow" x="-50%" y="-50%" width="200%" height="200%"><feGaussianBlur stdDeviation="10"/></filter>
<filter id="drop" x="-30%" y="-30%" width="160%" height="180%"><feDropShadow dx="8" dy="13" stdDeviation="7" flood-color="#403d31" flood-opacity=".2"/></filter>
<pattern id="layers" width="4" height="3" patternUnits="userSpaceOnUse"><path d="M0 1.5H4" stroke="#293626" stroke-opacity=".08" stroke-width=".6"/></pattern>
</defs><rect width="100%" height="100%" fill="#e9e7e0"/><g filter="url(#drop)"><rect x="137" y="92" width="326" height="151" rx="9" fill="#42483e"/><path d="m197 195 60-82 46 53 30-34 65 63" fill="none" stroke="#c1c5b2" stroke-width="5"/><path d="m240 136 17 18 13-14" fill="none" stroke="#c1c5b2" stroke-width="4"/><circle cx="152" cy="109" r="4" fill="#b7b9a9"/><circle cx="448" cy="109" r="4" fill="#b7b9a9"/><path d="M192 235 L199 330 L222 330 L232 235" fill="none" stroke="#9b775f" stroke-width="13"/><circle cx="212" cy="345" r="29" fill="url(#gold)" stroke="#b89755" stroke-width="2"/><circle cx="212" cy="345" r="23" fill="none" stroke="#f5dfb1"/><path d="m212 332 4 9 10 1-8 7 3 10-9-5-9 5 3-10-8-7 10-1Z" fill="#f8e6ba"/><path d="M282 235 L289 357 L312 357 L322 235" fill="none" stroke="#82918b" stroke-width="13"/><circle cx="302" cy="372" r="29" fill="url(#gold)" stroke="#b89755" stroke-width="2"/><circle cx="302" cy="372" r="23" fill="none" stroke="#f5dfb1"/><path d="m302 359 4 9 10 1-8 7 3 10-9-5-9 5 3-10-8-7 10-1Z" fill="#f8e6ba"/><path d="M370 235 L377 330 L400 330 L410 235" fill="none" stroke="#b9aa8f" stroke-width="13"/><circle cx="390" cy="345" r="29" fill="url(#gold)" stroke="#b89755" stroke-width="2"/><circle cx="390" cy="345" r="23" fill="none" stroke="#f5dfb1"/><path d="m390 332 4 9 10 1-8 7 3 10-9-5-9 5 3-10-8-7 10-1Z" fill="#f8e6ba"/></g></svg>