<svg xmlns="http://www.w3.org/2000/svg" width="600" height="480" viewBox="0 0 600 480"><defs>
<linearGradient id="wall" x2=".8" y2="1"><stop stop-color="#e7e7dd"/><stop offset="1" stop-color="#d5d6c8"/></linearGradient>
<linearGradient id="sage"><stop stop-color="#7f8c68"/><stop offset=".4" stop-color="#b0ba94"/><stop offset=".7" stop-color="#929f77"/><stop offset="1" stop-color="#687757"/></linearGradient>
<linearGradient id="cream"><stop stop-color="#d3c5a9"/><stop offset=".4" stop-color="#fff4d8"/><stop offset=".7" stop-color="#e7d9b9"/><stop offset="1" stop-color="#c5b493"/></linearGradient>
<linearGradient id="pot"><stop stop-color="#c2b69e"/><stop offset=".35" stop-color="#eee6d1"/><stop offset="1" stop-color="#b1a68c"/></linearGradient>
<linearGradient id="gold" x2="1" y2="1"><stop stop-color="#eed49c"/><stop offset=".5" stop-color="#be9951"/><stop offset="1" stop-color="#f0d7a4"/></linearGradient>
<filter id="shadow" x="-50%" y="-50%" width="200%" height="200%"><feGaussianBlur stdDeviation="10"/></filter>
<filter id="drop" x="-30%" y="-30%" width="160%" height="180%"><feDropShadow dx="8" dy="13" stdDeviation="7" flood-color="#403d31" flood-opacity=".2"/></filter>
<pattern id="layers" width="4" height="3" patternUnits="userSpaceOnUse"><path d="M0 1.5H4" stroke="#293626" stroke-opacity=".08" stroke-width=".6"/></pattern>
</defs><rect width="100%" height="100%" fill="#ede9df"/><ellipse cx="305" cy="389" rx="129" ry="20" fill="#9b8662" opacity=".18" filter="url(#shadow)"/><path d="M239 94 C203 122 260 144 223 174 C188 205 248 221 214 254 C187 286 242 300 222 330 C207 352 223 379 251 382 H349 C377 379 393 352 378 330 C358 300 413 286 386 254 C352 221 412 205 377 174 C340 144 397 122 361 94Z" fill="url(#cream)"/><clipPath id="ripple-clip"><path d="M239 94 C203 122 260 144 223 174 C188 205 248 221 214 254 C187 286 242 300 222 330 C207 352 223 379 251 382 H349 C377 379 393 352 378 330 C358 300 413 286 386 254 C352 221 412 205 377 174 C340 144 397 122 361 94Z"/></clipPath><g clip-path="url(#ripple-clip)"><path d="M245 95 Q220 222 245 380" fill="none" stroke="#a39473" stroke-opacity=".2" stroke-width="2"/><path d="M255 95 Q233 222 255 380" fill="none" stroke="#a39473" stroke-opacity=".2" stroke-width="2"/><path d="M265 95 Q246 222 265 380" fill="none" stroke="#a39473" stroke-opacity=".2" stroke-width="2"/><path d="M275 95 Q259 222 275 380" fill="none" stroke="#a39473" stroke-opacity=".2" stroke-width="2"/><path d="M285 95 Q272 222 285 380" fill="none" stroke="#a39473" stroke-opacity=".2" stroke-width="2"/><path d="M295 95 Q285 222 295 380" fill="none" stroke="#a39473" stroke-opacity=".2" stroke-width="2"/><path d="M305 95 Q298 222 305 380" fill="none" stroke="#a39473" stroke-opacity=".2" stroke-width="2"/><path d="M315 95 Q311 222 315 380" fill="none" stroke="#a39473" stroke-opacity=".2" stroke-width="2"/><path d="M325 95 Q324 222 325 380" fill="none" stroke="#a39473" stroke-opacity=".2" stroke-width="2"/><path d="M335 95 Q337 222 335 380" fill="none" stroke="#a39473" stroke-opacity=".2" stroke-width="2"/><path d="M345 95 Q350 222 345 380" fill="none" stroke="#a39473" stroke-opacity=".2" stroke-width="2"/><path d="M355 95 Q363 222 355 380" fill="none" stroke="#a39473" stroke-opacity=".2" stroke-width="2"/></g><ellipse cx="300" cy="95" rx="61" ry="12" fill="#d9cba9"/><ellipse cx="300" cy="95" rx="49" ry="7" fill="#f8edce"/></svg>